<svg xmlns="http://www.w3.org/2000/svg" xmlns:xlink="http://www.w3.org/1999/xlink" width="160" height="51" viewBox="0 0 160 51">
  <defs>
    <clipPath id="clip-path">
      <rect id="Rectangle_5188" data-name="Rectangle 5188" width="157.104" height="50.077" transform="translate(0 0)" fill="none"/>
    </clipPath>
    <clipPath id="clip-Artboard_1">
      <rect width="160" height="51"/>
    </clipPath>
  </defs>
  <g id="Artboard_1" data-name="Artboard – 1" clip-path="url(#clip-Artboard_1)">
    <g id="Group_5385" data-name="Group 5385" transform="translate(1 0)">
      <path id="Path_3482" data-name="Path 3482" d="M146.3,10.8V21.6l10.8,10.8V10.8Z" fill="#39b39d"/>
      <path id="Path_3483" data-name="Path 3483" d="M124.7,0l10.8,10.8h10.8V0Z" fill="#a3ca00"/>
      <rect id="Rectangle_5187" data-name="Rectangle 5187" width="10.801" height="10.802" transform="translate(146.302 -0.001)" fill="#005c50"/>
      <path id="Path_3484" data-name="Path 3484" d="M14.951,26.225h.087l4.3,12.146H10.654Zm-3.244-7.892L0,49.464H6.708l1.885-5.35H21.4l1.886,5.35h6.883L18.458,18.333Z" fill="#005c50"/>
      <path id="Path_3485" data-name="Path 3485" d="M43.754,26.225h.086l4.3,12.146H39.456ZM40.51,18.333,28.8,49.464h6.708l1.885-5.35H50.2l1.885,5.35h6.884L47.262,18.333Z" fill="#005c50"/>
      <g id="Group_5384" data-name="Group 5384">
        <g id="Group_5383" data-name="Group 5383" clip-path="url(#clip-path)">
          <path id="Path_3486" data-name="Path 3486" d="M105.635,40.781c0-6.139-16.661-1.315-16.661-13.5,0-5.261,4.165-9.6,11.355-9.6,7.279,0,11.4,4.778,11.576,10.39h-6.27c-.131-2.718-2.061-4.69-5.393-4.69-3.025,0-4.954,1.49-4.954,3.508,0,6.225,16.836,1.314,16.836,13.679,0,5.569-4.91,9.515-12.32,9.515-8.638,0-11.839-5.35-12.015-10.48H94.1c.175,2.543,2.017,4.781,6.05,4.781,3.42,0,5.481-1.317,5.481-3.6" fill="#005c50"/>
          <path id="Path_3487" data-name="Path 3487" d="M114.508,49.463V18.332h13.153c7.147,0,10.348,3.815,10.348,8.55a7.193,7.193,0,0,1-4.341,6.884,7.149,7.149,0,0,1,4.78,6.884c0,5.349-3.464,8.813-10.217,8.813Zm6.226-25.318V30.9h6.884c2.455,0,3.946-1.14,3.946-3.376,0-1.841-1.14-3.376-3.946-3.376Zm0,12.471v7.1h7.322c2.719,0,3.946-1.359,3.946-3.551,0-2.1-1.227-3.552-3.946-3.552Z" fill="#005c50"/>
          <path id="Path_3488" data-name="Path 3488" d="M79.864,39.6c-1.351,2.8-4.128,4.341-7.619,4.341-5.7,0-8.9-3.946-8.9-10.085s3.2-10.085,8.9-10.085c4.165,0,7.322,2.193,8.243,6.1h6.84C86.144,22.279,80,17.674,72.245,17.674c-8.945,0-15.653,6.446-15.653,16.18S63.3,50.035,72.245,50.035c7.142,0,12.906-3.9,14.7-10.437Z" fill="#005c50"/>
        </g>
      </g>
    </g>
  </g>
</svg>
