<svg width="170" height="32" viewBox="0 0 170 32" fill="none" xmlns="http://www.w3.org/2000/svg">
<path d="M35.8315 12.5146H39.1015C39.8917 12.5758 40.6739 12.3212 41.2766 11.8065C41.5285 11.5397 41.7228 11.224 41.8476 10.879C41.9724 10.5339 42.025 10.1669 42.0021 9.80073C42.0213 9.44443 41.9667 9.08802 41.8419 8.75376C41.7171 8.4195 41.5247 8.11457 41.2766 7.85806C40.6741 7.34292 39.8919 7.08781 39.1015 7.1487H35.8315V12.5226V12.5146ZM41.6004 24.4218L37.0957 16.2454H35.8302V24.4218H30.5557V2.76493H39.4105C40.9151 2.72249 42.409 3.02873 43.7755 3.65968C44.9015 4.18726 45.8422 5.04224 46.4746 6.11288C47.0749 7.16989 47.3833 8.36758 47.368 9.58309C47.3864 10.9661 46.9596 12.3183 46.1508 13.4402C45.2594 14.6262 43.9919 15.4746 42.5556 15.8464L47.5547 24.4218H41.6004Z" fill="#0D2A40"/>
<path d="M56.7615 16.1085C56.7754 15.7798 56.7152 15.4522 56.5855 15.1499C56.4557 14.8476 56.2597 14.5783 56.0118 14.362C55.4892 13.9207 54.8212 13.6894 54.1377 13.7131C53.478 13.6935 52.8339 13.9157 52.3266 14.3378C51.8132 14.7952 51.4884 15.4274 51.4158 16.1112L56.7615 16.1085ZM61.0606 18.4825H51.3876C51.4014 19.2272 51.701 19.9382 52.2245 20.4681C52.7146 20.926 53.3651 21.1726 54.0356 21.1546C54.4995 21.1887 54.9626 21.0777 55.3607 20.837C55.7588 20.5963 56.0723 20.2378 56.2577 19.8111H60.804C60.5726 20.717 60.141 21.5594 59.5411 22.2764C58.9214 23.0175 58.1401 23.6066 57.2572 23.9988C56.29 24.4258 55.2419 24.6389 54.1847 24.6235C52.9147 24.6469 51.6597 24.3459 50.5385 23.7489C49.4816 23.1754 48.6137 22.3079 48.0396 21.2514C47.4193 20.0838 47.1093 18.7765 47.1395 17.4547C47.1094 16.1341 47.4145 14.8274 48.0262 13.6567C48.5928 12.5992 49.4569 11.7309 50.5116 11.1591C51.6416 10.561 52.9051 10.26 54.1833 10.2845C55.4346 10.2615 56.6714 10.554 57.7798 11.135C58.8156 11.6878 59.6701 12.5274 60.2411 13.5532C60.8507 14.6793 61.1563 15.9448 61.1278 17.2249C61.1267 17.6426 61.1012 18.0598 61.0512 18.4744L61.0606 18.4825Z" fill="#0D2A40"/>
<path d="M72.0852 14.9303C71.806 14.639 71.471 14.407 71.1002 14.2481C70.7293 14.0893 70.3302 14.0068 69.9268 14.0057C69.5233 14.0046 69.1238 14.0848 68.7521 14.2416C68.3803 14.3983 68.044 14.6285 67.7632 14.9182C67.4565 15.2568 67.2201 15.6531 67.0679 16.0839C66.9157 16.5148 66.8506 16.9716 66.8765 17.4278C66.8273 18.3565 67.1459 19.2673 67.7632 19.9629C68.0404 20.2576 68.3747 20.4927 68.7459 20.6537C69.117 20.8148 69.5171 20.8984 69.9216 20.8995C70.3262 20.9007 70.7267 20.8193 71.0987 20.6603C71.4707 20.5013 71.8064 20.2682 72.0852 19.975C72.6599 19.2594 72.9731 18.3691 72.9731 17.4513C72.9731 16.5335 72.6599 15.6432 72.0852 14.9276V14.9303ZM63.3432 13.6566C63.8311 12.6334 64.5969 11.7679 65.5532 11.1591C66.4891 10.5755 67.5725 10.272 68.6754 10.2845C69.5741 10.2643 70.4634 10.4703 71.2616 10.8837C71.9626 11.2462 72.5536 11.7899 72.9732 12.4583V10.4833H77.2509V24.4246H72.9732V22.451C72.5395 23.116 71.9417 23.6578 71.2375 24.0243C70.4392 24.4375 69.5499 24.6435 68.6513 24.6235C67.5545 24.6339 66.4783 24.3259 65.5532 23.7368C64.5957 23.1182 63.8303 22.2443 63.3432 21.2137C62.8075 20.026 62.5305 18.738 62.5305 17.4352C62.5305 16.1323 62.8075 14.8443 63.3432 13.6566Z" fill="#0D2A40"/>
<path d="M84.6147 5.93823V24.4245H80.337V5.93823H84.6147Z" fill="#0D2A40"/>
<path d="M95.4804 20.8012V24.4286H93.3013C91.9933 24.5092 90.7015 24.104 89.6739 23.2906C89.2026 22.8027 88.8425 22.2185 88.6182 21.5782C88.394 20.9379 88.3109 20.2567 88.3748 19.5813V14.0354H86.6766V10.4873H88.3748V7.09097H92.6457V10.4873H95.4509V14.0354H92.6565V19.631C92.6411 19.7935 92.6599 19.9575 92.7117 20.1123C92.7636 20.2671 92.8472 20.4093 92.9574 20.5298C93.2456 20.741 93.6013 20.839 93.957 20.8052L95.4804 20.8012Z" fill="#0D2A40"/>
<path d="M112.091 10.4833L103.348 31.0385H98.7519L101.949 23.9449L96.2786 10.4792H101.049L104.274 19.1984L107.471 10.4792L112.091 10.4833Z" fill="#0D2A40"/>
<path d="M125.737 2.76514V6.99173H119.992V24.422H114.717V6.99307H108.979V2.76514H125.737Z" fill="#C01933"/>
<path d="M129.762 10.9951C130.52 10.5517 131.383 10.3227 132.261 10.3328V14.8549H131.087C130.231 14.7912 129.381 15.0346 128.689 15.5414C128.389 15.8618 128.162 16.2429 128.023 16.6588C127.884 17.0747 127.836 17.5156 127.883 17.9517V24.4299H123.612V10.4832H127.881V12.8075C128.358 12.0648 129.002 11.4441 129.762 10.9951Z" fill="#C01933"/>
<path d="M142.885 14.9303C142.606 14.639 142.271 14.407 141.9 14.2481C141.529 14.0893 141.13 14.0068 140.727 14.0057C140.323 14.0046 139.924 14.0848 139.552 14.2416C139.18 14.3983 138.844 14.6285 138.563 14.9182C138.256 15.2568 138.02 15.6531 137.868 16.0839C137.716 16.5148 137.651 16.9716 137.676 17.4278C137.627 18.3565 137.946 19.2673 138.563 19.9629C138.84 20.2576 139.175 20.4927 139.546 20.6537C139.917 20.8148 140.317 20.8984 140.722 20.8995C141.126 20.9007 141.527 20.8193 141.899 20.6603C142.271 20.5013 142.606 20.2682 142.885 19.975C143.46 19.2594 143.773 18.3691 143.773 17.4513C143.773 16.5335 143.46 15.6432 142.885 14.9276V14.9303ZM134.143 13.6566C134.631 12.6337 135.397 11.7683 136.353 11.1591C137.289 10.5755 138.372 10.272 139.475 10.2845C140.374 10.2643 141.263 10.4703 142.062 10.8837C142.762 11.2462 143.354 11.7899 143.773 12.4583V10.4833H148.044V24.4246H143.773V22.451C143.34 23.116 142.742 23.6579 142.037 24.0243C141.239 24.4376 140.35 24.6437 139.451 24.6235C138.354 24.6341 137.278 24.326 136.353 23.7368C135.396 23.1179 134.631 22.2441 134.143 21.2137C133.607 20.026 133.33 18.738 133.33 17.4352C133.33 16.1323 133.607 14.8443 134.143 13.6566Z" fill="#C01933"/>
<path d="M150.554 13.6566C151.118 12.6017 151.978 11.734 153.027 11.1591C154.142 10.563 155.391 10.262 156.655 10.2845C158.23 10.2297 159.777 10.7146 161.04 11.6589C162.248 12.6316 163.067 14.0054 163.349 15.5308H158.811C158.677 15.0515 158.384 14.6321 157.98 14.3418C157.575 14.0514 157.084 13.9074 156.587 13.9334C156.225 13.9221 155.864 13.9991 155.538 14.1577C155.212 14.3164 154.929 14.552 154.713 14.8443C154.255 15.638 154.014 16.5383 154.014 17.4546C154.014 18.371 154.255 19.2713 154.713 20.065C154.929 20.3573 155.212 20.5929 155.538 20.7515C155.864 20.9102 156.225 20.9872 156.587 20.9759C157.084 21.0021 157.576 20.8582 157.98 20.5678C158.384 20.2774 158.677 19.8579 158.811 19.3785H163.356C163.06 20.896 162.238 22.26 161.033 23.2289C159.78 24.1847 158.235 24.6787 156.66 24.6275C155.396 24.6506 154.147 24.3495 153.033 23.7529C151.983 23.178 151.124 22.3102 150.559 21.2553C149.976 20.0743 149.672 18.7747 149.672 17.4573C149.672 16.14 149.976 14.8404 150.559 13.6593L150.554 13.6566Z" fill="#C01933"/>
<path d="M166.804 7.79897H167.325C167.416 7.80221 167.505 7.77525 167.579 7.72239C167.613 7.6949 167.64 7.65962 167.657 7.61961C167.675 7.57959 167.682 7.53602 167.678 7.49265C167.682 7.45008 167.674 7.40736 167.657 7.36824C167.64 7.32912 167.613 7.29479 167.579 7.26829C167.504 7.21892 167.415 7.19402 167.325 7.19708H166.804V7.79897ZM168.001 7.93332C167.889 8.05863 167.736 8.14172 167.57 8.16842L168.233 9.10886L167.669 9.12095L167.06 8.19127H166.804V9.12095H166.33V6.76851H167.359C167.57 6.75781 167.778 6.8259 167.941 6.9593C168.012 7.02551 168.069 7.10626 168.106 7.19601C168.143 7.28576 168.16 7.38237 168.155 7.47921C168.161 7.64415 168.106 7.80556 168.001 7.93332ZM168.482 9.2768C168.799 8.91131 168.974 8.4454 168.974 7.96354C168.974 7.48169 168.799 7.01578 168.482 6.65029C168.133 6.32035 167.669 6.13618 167.186 6.13618C166.703 6.13618 166.239 6.32035 165.891 6.65029C165.573 7.01578 165.398 7.48169 165.398 7.96354C165.398 8.4454 165.573 8.91131 165.891 9.2768C166.239 9.60674 166.703 9.79091 167.186 9.79091C167.669 9.79091 168.133 9.60674 168.482 9.2768ZM168.316 6.05244C168.642 6.24034 168.91 6.51253 169.091 6.83972C169.281 7.1858 169.378 7.57444 169.372 7.96825C169.378 8.35998 169.281 8.74657 169.091 9.09005C168.909 9.41502 168.641 9.68521 168.316 9.87196C167.974 10.0658 167.586 10.1642 167.192 10.1568C166.797 10.1632 166.407 10.0649 166.063 9.87196C165.736 9.68655 165.465 9.41618 165.282 9.09005C165.091 8.74657 164.994 8.35998 165 7.96825C164.995 7.57444 165.091 7.1858 165.282 6.83972C165.464 6.51136 165.735 6.23899 166.063 6.05244C166.407 5.86049 166.797 5.76264 167.192 5.76897C167.585 5.76192 167.974 5.85984 168.316 6.05244Z" fill="#C01933"/>
<path d="M20.0826 4.33823L14.1431 10.2777L18.0808 14.2155L16.9415 15.3427L15.813 14.2155V24.4259H20.1753C22.7771 21.7242 24.2228 18.1144 24.2052 14.3637C24.1877 10.6129 22.7082 7.01681 20.0812 4.33957L20.0826 4.33823Z" fill="#C01933"/>
<path d="M7.45631 3.58322L14.1495 10.2764L20.089 4.33691C19.2698 3.50148 18.3528 2.768 17.3577 2.15241C17.1643 2.0315 16.9672 1.91641 16.7666 1.80714L16.7465 1.79505C16.553 1.68757 16.3542 1.58546 16.1553 1.48739L16.1177 1.46589C15.9256 1.37185 15.7295 1.28318 15.532 1.1972L15.4702 1.16898C15.2807 1.08837 15.09 1.0118 14.8978 0.939252L14.8065 0.902977C14.6238 0.83446 14.437 0.768632 14.2489 0.712205L14.128 0.67056C13.9493 0.615477 13.768 0.564418 13.5906 0.51471C13.5396 0.501275 13.4899 0.485156 13.4388 0.471721C13.2642 0.426043 13.0868 0.385735 12.9095 0.348117C12.8504 0.336026 12.794 0.318563 12.7348 0.307815C12.5629 0.271541 12.3882 0.243328 12.2136 0.213772C12.1491 0.20168 12.0792 0.188245 12.0188 0.177497C11.8481 0.151971 11.6775 0.131824 11.5069 0.111672C11.4343 0.103611 11.3631 0.091514 11.2906 0.0847966C11.1159 0.0659879 10.9373 0.0552424 10.7532 0.0431511C10.6833 0.0431511 10.6189 0.0310576 10.5463 0.0283707C10.2991 0.0158315 10.0501 0.00911495 9.79933 0.0082193C6.17162 0.00392655 2.6766 1.37227 0.0161133 3.83848V11.0301L7.45631 3.58322Z" fill="#EB4734"/>
<path d="M10.3784 19.3529H5.06492L0 24.4165V24.4232H15.8128V14.2127L16.9413 15.3399L18.0792 14.2127L14.1415 10.275L10.3797 14.0367L10.3784 19.3529Z" fill="white"/>
<path d="M0.00146484 11.0314V24.4179L5.06638 19.3543H5.02339V13.9978H10.3798V14.0408L14.1416 10.2791L7.44837 3.58588L0.00146484 11.0314Z" fill="white"/>
<path d="M5.20337 19.4227H10.5168V14.1093L5.20337 19.4227Z" fill="#B1202A"/>
<path d="M5.16028 14.0676V19.4241H5.20327L10.5167 14.1106V14.0676H5.16028Z" fill="#EB4734"/>
</svg>
