<?xml version="1.0" encoding="UTF-8"?>
<svg width="240px" height="110px" viewBox="0 0 240 110" version="1.1" xmlns="http://www.w3.org/2000/svg" xmlns:xlink="http://www.w3.org/1999/xlink">
    <!-- Generator: sketchtool 61 (101010) - https://sketch.com -->
    <title>BFC33F62-8FC6-43E9-8FCE-CF245DAAAEFC</title>
    <desc>Created with sketchtool.</desc>
    <g id="Home" stroke="none" stroke-width="1" fill="none" fill-rule="evenodd">
        <g id="Home-4" transform="translate(-595.000000, -25.000000)" fill-rule="nonzero">
            <g id="Header">
                <g id="logo">
                    <g transform="translate(570.000000, 0.000000)">
                        <g id="SCDS_PrimaryLogo_Vertical" transform="translate(25.000000, 25.000000)">
                            <path d="M21.5240506,74.0050633 C20.8724547,71.900008 19.843007,69.9311894 18.4860759,68.1949367 L14.5291139,68.1949367 L14.5291139,90.0911392 L17.5670886,91.1772152 L17.5670886,92.2556962 L5.3164557,92.2556962 L5.3164557,91.1772152 L8.30126582,90.0911392 L8.30126582,68.1949367 L4.32151899,68.1949367 C2.9624311,69.9297982 1.93276712,71.8990305 1.2835443,74.0050633 L0,74.0050633 L0.410126582,66.4101266 L22.3822785,66.4101266 L22.7924051,74.0050633 L21.5240506,74.0050633 Z" id="Path" fill="#0032A0"></path>
                            <polygon id="Path" fill="#0032A0" points="48.8658228 68.6050633 48.8658228 90.0911392 51.5848101 91.1772152 51.5848101 92.2556962 39.7822785 92.2556962 39.7822785 91.1772152 42.6151899 90.0911392 42.6151899 79.9291139 33.7139241 79.9291139 33.7139241 90.0911392 36.4556962 91.1772152 36.4556962 92.2556962 24.5088608 92.2556962 24.5088608 91.1772152 27.4556962 90.0911392 27.4556962 68.6050633 24.5088608 67.5265823 24.5088608 66.4405063 36.5392405 66.4405063 36.5392405 67.5265823 33.7139241 68.6050633 33.7139241 77.878481 42.6151899 77.878481 42.6151899 68.6050633 39.7822785 67.5265823 39.7822785 66.4405063 51.8126582 66.4405063 51.8126582 67.5265823"></polygon>
                            <path d="M54.2278481,91.1772152 L57.1746835,90.0911392 L57.1746835,68.6050633 L54.2278481,67.5265823 L54.2278481,66.4405063 L75.0911392,66.4405063 L75.3493671,73.6708861 L74.0810127,73.6708861 C73.2836121,71.7115628 72.1644016,69.8992633 70.7696203,68.3088608 L63.356962,68.3088608 L63.356962,77.878481 L67.2303797,77.878481 C68.5670886,77.0202532 69.3873418,75.4556962 69.721519,73.321519 L70.9139241,73.321519 L70.9139241,84.3797468 L69.721519,84.3797468 C69.3873418,82.2607595 68.5670886,80.6962025 67.2303797,79.8227848 L63.356962,79.8227848 L63.356962,90.3797468 L71.2481013,90.3797468 C72.781576,88.3991361 73.9891646,86.1865055 74.8253165,83.8253165 L76.0936709,83.8253165 L75.721519,92.2405063 L54.2278481,92.2405063 L54.2278481,91.1772152 Z" id="Path" fill="#0032A0"></path>
                            <path d="M98.6506329,92.7721519 C95.905894,92.7127708 93.194275,92.1596418 90.6455696,91.1392405 L90.6455696,83.6126582 L91.8379747,83.6126582 L93.0683544,87.2278481 C94.415106,89.2208663 96.4857477,90.6103759 98.8405063,91.1012658 C102.417722,91.1012658 104.156962,89.2708861 104.156962,86.8936709 C104.185815,85.3001162 103.200732,83.8636638 101.703797,83.3164557 C99.9873418,82.556962 97.7164557,82.0860759 95.4455696,81.121519 C92.6886076,79.9291139 90.8886076,77.3240506 90.8886076,73.7468354 C90.8886076,69.5696203 94.1620253,65.9240506 99.8582278,65.9240506 C102.484203,65.982102 105.073914,66.5495686 107.483544,67.5949367 L107.483544,74.5594937 L106.329114,74.5594937 L105.098734,71.2405063 C103.686076,69.2278481 102.341772,68.1113924 99.956962,67.6253165 C97.3518987,67.6253165 95.4,69.2278481 95.4,71.3544304 C95.4,72.9189873 95.8481013,74.1493671 97.9291139,75.0759494 C99.6075949,75.835443 101.878481,76.3063291 104.149367,77.278481 C107.004847,78.4151369 108.858726,81.2004917 108.805063,84.2734177 C108.782278,89.0506329 105.243038,92.7721519 98.6506329,92.7721519 Z" id="Path" fill="#0032A0"></path>
                            <path d="M132.053165,68.7493671 L132.053165,83.764557 C132.053165,89.5367089 128.741772,92.7721519 123,92.7721519 C117.903797,92.7721519 112.875949,90.9873418 112.875949,84.9189873 L112.875949,68.6050633 L109.929114,67.5265823 L109.929114,66.4405063 L122.278481,66.4405063 L122.278481,67.5265823 L119.081013,68.6050633 L119.081013,83.4303797 C119.081013,88.1924051 120.493671,90.5392405 124.253165,90.5392405 C128.908861,90.5392405 129.918987,87 129.918987,82.2759494 L129.918987,68.7493671 L126.972152,67.5265823 L126.972152,66.4405063 L134.832911,66.4405063 L134.832911,67.5265823 L132.053165,68.7493671 Z" id="Path" fill="#0032A0"></path>
                            <polygon id="Path" fill="#0032A0" points="155.407595 92.2556962 155.407595 91.1772152 158.240506 90.0911392 158.240506 68.6810127 157.868354 68.6810127 150.903797 92.2253165 148.101266 92.2253165 142.025316 68.6810127 141.653165 68.6810127 141.653165 89.9468354 144.258228 91.1772152 144.258228 92.2556962 136.587342 92.2556962 136.587342 91.1772152 139.534177 89.9468354 139.534177 68.6050633 136.587342 67.5265823 136.587342 66.4405063 147.691139 66.4405063 151.78481 82.3898734 156.288608 66.4405063 167.202532 66.4405063 167.202532 67.5265823 164.483544 68.6050633 164.483544 90.0911392 167.202532 91.1772152 167.202532 92.2556962"></polygon>
                            <polygon id="Path" fill="#0032A0" points="188.44557 92.2556962 188.44557 91.1772152 191.278481 90.0911392 191.278481 68.6810127 190.906329 68.6810127 183.941772 92.2253165 181.146835 92.2253165 175.070886 68.6810127 174.683544 68.6810127 174.683544 89.9468354 177.288608 91.1772152 177.288608 92.2556962 169.617722 92.2556962 169.617722 91.1772152 172.556962 89.9468354 172.556962 68.6050633 169.617722 67.5265823 169.617722 66.4405063 180.713924 66.4405063 184.807595 82.3898734 189.318987 66.4405063 200.232911 66.4405063 200.232911 67.5265823 197.468354 68.6050633 197.468354 90.0911392 200.187342 91.1772152 200.187342 92.2556962"></polygon>
                            <polygon id="Path" fill="#0032A0" points="202.822785 92.2556962 202.822785 91.1772152 205.762025 90.0911392 205.762025 68.6050633 202.822785 67.5265823 202.822785 66.4405063 215.035443 66.4405063 215.035443 67.5265823 211.997468 68.6050633 211.997468 90.0911392 215.035443 91.1772152 215.035443 92.2556962"></polygon>
                            <path d="M238.048101,74.0050633 C237.396505,71.900008 236.367058,69.9311894 235.010127,68.1949367 L231.068354,68.1949367 L231.068354,90.0911392 L234.106329,91.1772152 L234.106329,92.2556962 L221.810127,92.2556962 L221.810127,91.1772152 L224.794937,90.0911392 L224.794937,68.1949367 L220.84557,68.1949367 C219.486482,69.9297982 218.456818,71.8990305 217.807595,74.0050633 L216.501266,74.0050633 L216.911392,66.4101266 L238.883544,66.4101266 L239.293671,74.0050633 L238.048101,74.0050633 Z" id="Path" fill="#0032A0"></path>
                            <path d="M43.443038,109.078481 C41.479667,108.976062 39.9444482,107.346903 39.9586797,105.380914 C39.9729113,103.414925 41.5315546,101.808162 43.4962025,101.734177 C44.5359915,101.696542 45.5440545,102.095911 46.2759494,102.835443 L45.4708861,103.762025 C44.9528408,103.213021 44.2357091,102.895512 43.4810127,102.881013 C42.832737,102.890293 42.2163775,103.163951 41.7747176,103.638591 C41.3330578,104.113232 41.1044209,104.747671 41.1417722,105.394937 C41.1045359,106.044371 41.3325149,106.681103 41.7734988,107.159313 C42.2144827,107.637523 42.8306941,107.916244 43.4810127,107.931646 C44.2617434,107.922563 45.0028719,107.586437 45.5240506,107.005063 L46.3291139,107.848101 C45.6017976,108.672386 44.5413641,109.124466 43.443038,109.078481 Z" id="Path" fill="#7B7B7B"></path>
                            <path d="M52.9367089,109.078481 C50.9136488,109.053395 49.2911634,107.398212 49.3064424,105.375054 C49.3217213,103.351896 50.9690202,101.721407 52.9922283,101.726865 C55.0154365,101.73235 56.6538921,103.371726 56.6582278,105.394937 C56.6773706,106.384258 56.2901628,107.338186 55.586897,108.034276 C54.8836312,108.730366 53.925782,109.107769 52.9367089,109.078481 Z M52.9367089,102.881013 C52.2812693,102.882348 51.6548918,103.151691 51.2030427,103.626491 C50.7511936,104.101291 50.5131897,104.740235 50.5443038,105.394937 C50.5175457,106.054522 50.7594041,106.696765 51.2145934,107.174857 C51.6697827,107.652949 52.2993895,107.926019 52.9594937,107.931646 C54.3004391,107.858079 55.350065,106.749291 55.350065,105.406329 C55.350065,104.063367 54.3004391,102.954579 52.9594937,102.881013 L52.9367089,102.881013 Z" id="Shape" fill="#7B7B7B"></path>
                            <path d="M66.2506329,105.881013 C66.2506329,108 65.0582278,109.063291 63.2126582,109.063291 C61.3670886,109.063291 60.1746835,108 60.1746835,105.941772 L60.1746835,101.855696 L61.4278481,101.855696 L61.4278481,105.888608 C61.4278481,107.210127 62.1037975,107.916456 63.2202532,107.916456 C64.3367089,107.916456 65.0050633,107.248101 65.0050633,105.941772 L65.0050633,101.855696 L66.2506329,101.855696 L66.2506329,105.881013 Z" id="Path" fill="#7B7B7B"></path>
                            <polygon id="Path" fill="#7B7B7B" points="75.0455696 101.855696 76.2759494 101.855696 76.2759494 108.956962 75.2278481 108.956962 71.3164557 103.898734 71.3164557 108.956962 70.0860759 108.956962 70.0860759 101.855696 71.2405063 101.855696 75.0379747 106.762025"></polygon>
                            <polygon id="Path" fill="#7B7B7B" points="83.2253165 108.956962 81.964557 108.956962 81.964557 103.010127 79.6860759 103.010127 79.6860759 101.855696 85.4506329 101.855696 85.4506329 103.010127 83.1721519 103.010127"></polygon>
                            <path d="M93.4632911,108.956962 L91.7240506,106.481013 L90.1594937,106.481013 L90.1594937,108.956962 L88.9139241,108.956962 L88.9139241,101.855696 L92.0734177,101.855696 C93.7139241,101.855696 94.7164557,102.713924 94.7164557,104.134177 C94.7566126,105.172603 94.040387,106.087959 93.0227848,106.298734 L94.9367089,108.987342 L93.4632911,108.956962 Z M91.9443038,102.987342 L90.1291139,102.987342 L90.1291139,105.372152 L91.9518987,105.372152 C92.8481013,105.372152 93.4177215,104.908861 93.4177215,104.179747 C93.4177215,103.450633 92.9012658,102.987342 91.9746835,102.987342 L91.9443038,102.987342 Z" id="Shape" fill="#7B7B7B"></path>
                            <polygon id="Path" fill="#7B7B7B" points="101.460759 108.956962 100.2 108.956962 100.2 106.15443 97.3822785 101.855696 98.8481013 101.855696 100.837975 105 102.850633 101.855696 104.278481 101.855696 101.460759 106.124051"></polygon>
                            <path d="M115.298734,108.956962 L112.655696,108.956962 L112.655696,101.855696 L115.298734,101.855696 C116.60643,101.795199 117.841531,102.458404 118.51347,103.581892 C119.185409,104.705381 119.185409,106.107278 118.51347,107.230766 C117.841531,108.354254 116.60643,109.017459 115.298734,108.956962 L115.298734,108.956962 Z M115.298734,102.987342 L113.924051,102.987342 L113.924051,107.848101 L115.321519,107.848101 C116.655392,107.848101 117.736709,106.766784 117.736709,105.432911 C117.736709,104.099039 116.655392,103.017722 115.321519,103.017722 L115.298734,102.987342 Z" id="Shape" fill="#7B7B7B"></path>
                            <path d="M129.01519,108.956962 L127.693671,108.956962 L126.972152,107.240506 L123.61519,107.240506 L122.855696,108.956962 L121.579747,108.956962 L124.701266,101.802532 L125.863291,101.802532 L129.01519,108.956962 Z M125.316456,103.291139 L124.093671,106.131646 L126.539241,106.131646 L125.316456,103.291139 Z" id="Shape" fill="#7B7B7B"></path>
                            <polygon id="Path" fill="#7B7B7B" points="134.582278 108.956962 133.321519 108.956962 133.321519 106.15443 130.503797 101.855696 131.977215 101.855696 133.959494 105 135.972152 101.855696 137.4 101.855696 134.582278 106.124051"></polygon>
                            <path d="M148.518987,104.810127 C150.037975,105.174684 150.797468,105.713924 150.797468,106.898734 C150.797468,108.243038 149.756962,109.032974 148.260759,109.032974 C147.165353,109.038789 146.10788,108.632069 145.298734,107.893671 L146.058228,107.005063 C146.660984,107.585227 147.462193,107.913859 148.298734,107.924051 C149.058228,107.924051 149.559494,107.574684 149.559494,107.027848 C149.559494,106.481013 149.278481,106.268354 147.956962,105.926582 C146.437975,105.562025 145.594937,105.113924 145.594937,103.8 C145.594937,102.486076 146.582278,101.772152 148.010127,101.772152 C148.947631,101.755148 149.860492,102.072899 150.58481,102.668354 L149.916456,103.610127 C149.375319,103.150231 148.696764,102.883084 147.987342,102.850633 C147.227848,102.850633 146.832911,103.222785 146.832911,103.701266 C146.832911,104.179747 147.159494,104.513924 148.518987,104.810127 Z" id="Path" fill="#7B7B7B"></path>
                            <path d="M157.686076,109.078481 C155.722705,108.976062 154.187486,107.346903 154.201718,105.380914 C154.215949,103.414925 155.774593,101.808162 157.739241,101.734177 C158.779029,101.696542 159.787093,102.095911 160.518987,102.835443 L159.713924,103.762025 C159.195879,103.213021 158.478747,102.895512 157.724051,102.881013 C157.075775,102.890293 156.459415,103.163951 156.017756,103.638591 C155.576096,104.113232 155.347459,104.747671 155.38481,105.394937 C155.347574,106.044371 155.575553,106.681103 156.016537,107.159313 C156.457521,107.637523 157.073732,107.916244 157.724051,107.931646 C158.504781,107.922563 159.24591,107.586437 159.767089,107.005063 L160.526582,107.817722 C159.815264,108.640713 158.773589,109.10306 157.686076,109.078481 Z" id="Path" fill="#7B7B7B"></path>
                            <polygon id="Path" fill="#7B7B7B" points="165.243038 105.964557 165.243038 108.956962 163.997468 108.956962 163.997468 101.855696 165.243038 101.855696 165.243038 104.810127 168.607595 104.810127 168.607595 101.863291 169.853165 101.863291 169.853165 108.964557 168.607595 108.964557 168.607595 105.972152"></polygon>
                            <path d="M177.212658,109.078481 C175.189598,109.053395 173.567113,107.398212 173.582392,105.375054 C173.597671,103.351896 175.24497,101.721407 177.268178,101.726865 C179.291386,101.73235 180.929841,103.371726 180.934177,105.394937 C180.95332,106.384258 180.566112,107.338186 179.862846,108.034276 C179.159581,108.730366 178.201731,109.107769 177.212658,109.078481 Z M177.212658,102.881013 C176.557219,102.882348 175.930841,103.151691 175.478992,103.626491 C175.027143,104.101291 174.789139,104.740235 174.820253,105.394937 C174.793495,106.054522 175.035353,106.696765 175.490543,107.174857 C175.945732,107.652949 176.575339,107.926019 177.235443,107.931646 C178.576388,107.858079 179.626014,106.749291 179.626014,105.406329 C179.626014,104.063367 178.576388,102.954579 177.235443,102.881013 L177.212658,102.881013 Z" id="Shape" fill="#7B7B7B"></path>
                            <path d="M187.951899,109.078481 C185.928839,109.053395 184.306353,107.398212 184.321632,105.375054 C184.336911,103.351896 185.98421,101.721407 188.007418,101.726865 C190.030626,101.73235 191.669082,103.371726 191.673418,105.394937 C191.694765,106.384909 191.308261,107.340136 190.604501,108.036715 C189.900741,108.733294 188.9416,109.109981 187.951899,109.078481 Z M187.951899,102.881013 C187.296459,102.882348 186.670082,103.151691 186.218233,103.626491 C185.766383,104.101291 185.52838,104.740235 185.559494,105.394937 C185.532736,106.054522 185.774594,106.696765 186.229783,107.174857 C186.684973,107.652949 187.314579,107.926019 187.974684,107.931646 C189.315629,107.858079 190.365255,106.749291 190.365255,105.406329 C190.365255,104.063367 189.315629,102.954579 187.974684,102.881013 L187.951899,102.881013 Z" id="Shape" fill="#7B7B7B"></path>
                            <polygon id="Path" fill="#7B7B7B" points="195.303797 101.855696 196.556962 101.855696 196.556962 107.848101 200.286076 107.848101 200.286076 108.987342 195.303797 108.987342"></polygon>
                            <path d="M147.858228,0 L91.4582278,0 C91.4582278,0 88.8075949,37.6253165 119.658228,54.6227848 C150.516456,37.6253165 147.858228,0 147.858228,0 Z M119.612658,3.90379747 L100.078481,26.6886076 C99.1896379,24.5483439 98.4288024,22.3571378 97.8,20.1265823 C96.3297473,14.8344511 95.4960095,9.38583416 95.3164557,3.89620253 L119.612658,3.90379747 Z M119.658228,50.1265823 C114.083575,46.7246491 109.284125,42.1916919 105.56962,36.8202532 C105.063291,36.1012658 104.58481,35.364557 104.134177,34.6101266 L119.696203,16.4582278 L135.189873,34.6101266 C134.729114,35.364557 134.250633,36.1012658 133.75443,36.8202532 C130.037722,42.1924814 125.235625,46.7254954 119.658228,50.1265823 L119.658228,50.1265823 Z M141.493671,20.1341772 C140.861538,22.3636846 140.100769,24.5546973 139.21519,26.6962025 L119.673418,3.91139241 L143.977215,3.91139241 C143.800901,9.3988288 142.967099,14.8453159 141.493671,20.1341772 L141.493671,20.1341772 Z" id="Shape" fill="#0032A0"></path>
                        </g>
                    </g>
                </g>
            </g>
        </g>
    </g>
</svg>